<mxfile host="app.diagrams.net" modified="2021-01-28T14:57:05.067Z" agent="5.0 (Windows NT 10.0; Win64; x64) AppleWebKit/537.36 (KHTML, like Gecko) Chrome/88.0.4324.104 Safari/537.36" etag="ENEi1uQGIjm_EHU3LVqO" version="14.2.7" type="github">
  <diagram id="e7m6ovh9YExPru3OCkFa" name="Page-1">
    <mxGraphModel dx="1422" dy="705" grid="1" gridSize="10" guides="1" tooltips="1" connect="1" arrows="1" fold="1" page="1" pageScale="1" pageWidth="413" pageHeight="583" math="0" shadow="0">
      <root>
        <mxCell id="0" />
        <mxCell id="1" parent="0" />
        <mxCell id="uqDDsoYjMQcg-4C3IxTi-2" value="Sandbox&lt;br&gt;HCL_UK Airports" style="rounded=0;whiteSpace=wrap;html=1;" parent="1" vertex="1">
          <mxGeometry x="192" y="250" width="120" height="60" as="geometry" />
        </mxCell>
        <mxCell id="uqDDsoYjMQcg-4C3IxTi-3" value="Sandbox&lt;br&gt;HCL_SIA" style="rounded=0;whiteSpace=wrap;html=1;" parent="1" vertex="1">
          <mxGeometry x="194" y="410" width="120" height="60" as="geometry" />
        </mxCell>
        <mxCell id="uqDDsoYjMQcg-4C3IxTi-4" value="QA / Integration" style="rounded=0;whiteSpace=wrap;html=1;" parent="1" vertex="1">
          <mxGeometry x="586" y="330" width="120" height="60" as="geometry" />
        </mxCell>
        <mxCell id="uqDDsoYjMQcg-4C3IxTi-11" value="UAT&lt;br&gt;(partial copy)" style="rounded=0;whiteSpace=wrap;html=1;" parent="1" vertex="1">
          <mxGeometry x="806" y="330" width="120" height="60" as="geometry" />
        </mxCell>
        <mxCell id="uqDDsoYjMQcg-4C3IxTi-12" value="" style="endArrow=classic;html=1;" parent="1" edge="1">
          <mxGeometry width="50" height="50" relative="1" as="geometry">
            <mxPoint x="706" y="360" as="sourcePoint" />
            <mxPoint x="806" y="360" as="targetPoint" />
          </mxGeometry>
        </mxCell>
        <mxCell id="uqDDsoYjMQcg-4C3IxTi-14" value="Pre Prod / Staging&lt;br&gt;(Full copy)" style="rounded=0;whiteSpace=wrap;html=1;" parent="1" vertex="1">
          <mxGeometry x="996" y="330" width="120" height="60" as="geometry" />
        </mxCell>
        <mxCell id="uqDDsoYjMQcg-4C3IxTi-15" value="" style="endArrow=classic;html=1;entryX=0;entryY=0.5;entryDx=0;entryDy=0;" parent="1" target="uqDDsoYjMQcg-4C3IxTi-14" edge="1">
          <mxGeometry width="50" height="50" relative="1" as="geometry">
            <mxPoint x="926" y="359.5" as="sourcePoint" />
            <mxPoint x="986" y="360" as="targetPoint" />
          </mxGeometry>
        </mxCell>
        <mxCell id="uqDDsoYjMQcg-4C3IxTi-18" value="" style="endArrow=none;html=1;exitX=0.76;exitY=0.24;exitDx=0;exitDy=0;exitPerimeter=0;" parent="1" source="RJ9k_xJdiQ0NUVy3tTLH-12" edge="1">
          <mxGeometry width="50" height="50" relative="1" as="geometry">
            <mxPoint x="896" y="554" as="sourcePoint" />
            <mxPoint x="976" y="360" as="targetPoint" />
          </mxGeometry>
        </mxCell>
        <mxCell id="uqDDsoYjMQcg-4C3IxTi-41" value="Merge&amp;nbsp; into master and&lt;br&gt;create Tag 1.0.1" style="edgeLabel;html=1;align=center;verticalAlign=middle;resizable=0;points=[];fontColor=#FF0080;" parent="uqDDsoYjMQcg-4C3IxTi-18" vertex="1" connectable="0">
          <mxGeometry x="-0.2172" y="-5" relative="1" as="geometry">
            <mxPoint as="offset" />
          </mxGeometry>
        </mxCell>
        <mxCell id="uqDDsoYjMQcg-4C3IxTi-19" value="Stream 1" style="ellipse;whiteSpace=wrap;html=1;aspect=fixed;fillColor=#00FFFF;" parent="1" vertex="1">
          <mxGeometry x="30" y="100" width="60" height="60" as="geometry" />
        </mxCell>
        <mxCell id="uqDDsoYjMQcg-4C3IxTi-20" value="Stream 2" style="ellipse;whiteSpace=wrap;html=1;aspect=fixed;fillColor=#00FF00;" parent="1" vertex="1">
          <mxGeometry x="30" y="250" width="60" height="60" as="geometry" />
        </mxCell>
        <mxCell id="uqDDsoYjMQcg-4C3IxTi-21" value="Stream 3" style="ellipse;whiteSpace=wrap;html=1;aspect=fixed;fillColor=#f8cecc;strokeColor=#b85450;" parent="1" vertex="1">
          <mxGeometry x="30" y="410" width="60" height="60" as="geometry" />
        </mxCell>
        <mxCell id="uqDDsoYjMQcg-4C3IxTi-22" value="Stream 4" style="ellipse;whiteSpace=wrap;html=1;aspect=fixed;fillColor=#00FFFF;" parent="1" vertex="1">
          <mxGeometry x="30" y="570" width="60" height="60" as="geometry" />
        </mxCell>
        <mxCell id="uqDDsoYjMQcg-4C3IxTi-23" value="" style="endArrow=classic;html=1;" parent="1" edge="1">
          <mxGeometry width="50" height="50" relative="1" as="geometry">
            <mxPoint x="90" y="134" as="sourcePoint" />
            <mxPoint x="190" y="134" as="targetPoint" />
          </mxGeometry>
        </mxCell>
        <mxCell id="uqDDsoYjMQcg-4C3IxTi-24" value="" style="endArrow=classic;html=1;" parent="1" edge="1">
          <mxGeometry width="50" height="50" relative="1" as="geometry">
            <mxPoint x="90" y="279.5" as="sourcePoint" />
            <mxPoint x="190" y="280" as="targetPoint" />
          </mxGeometry>
        </mxCell>
        <mxCell id="uqDDsoYjMQcg-4C3IxTi-25" value="" style="endArrow=classic;html=1;" parent="1" edge="1">
          <mxGeometry width="50" height="50" relative="1" as="geometry">
            <mxPoint x="90" y="439.5" as="sourcePoint" />
            <mxPoint x="190" y="440" as="targetPoint" />
          </mxGeometry>
        </mxCell>
        <mxCell id="uqDDsoYjMQcg-4C3IxTi-33" value="Sandbox&lt;br&gt;HCL_CommonPass&lt;br&gt;" style="rounded=0;whiteSpace=wrap;html=1;" parent="1" vertex="1">
          <mxGeometry x="197" y="570" width="120" height="60" as="geometry" />
        </mxCell>
        <mxCell id="uqDDsoYjMQcg-4C3IxTi-34" value="" style="endArrow=classic;html=1;" parent="1" edge="1">
          <mxGeometry width="50" height="50" relative="1" as="geometry">
            <mxPoint x="90" y="599.5" as="sourcePoint" />
            <mxPoint x="160" y="600" as="targetPoint" />
          </mxGeometry>
        </mxCell>
        <mxCell id="uqDDsoYjMQcg-4C3IxTi-37" value="Release Branch" style="shape=image;html=1;verticalAlign=top;verticalLabelPosition=bottom;labelBackgroundColor=#ffffff;imageAspect=0;aspect=fixed;image=https://cdn3.iconfinder.com/data/icons/social-media-2169/24/social_media_social_media_logo_git-128.png;fillColor=#00FF00;fontColor=#FF0080;" parent="1" vertex="1">
          <mxGeometry x="560" y="370" width="48" height="48" as="geometry" />
        </mxCell>
        <mxCell id="uqDDsoYjMQcg-4C3IxTi-38" value="Release Branch" style="shape=image;html=1;verticalAlign=top;verticalLabelPosition=bottom;labelBackgroundColor=#ffffff;imageAspect=0;aspect=fixed;image=https://cdn3.iconfinder.com/data/icons/social-media-2169/24/social_media_social_media_logo_git-128.png;fillColor=#00FF00;fontColor=#FF0080;" parent="1" vertex="1">
          <mxGeometry x="786" y="370" width="48" height="48" as="geometry" />
        </mxCell>
        <mxCell id="uqDDsoYjMQcg-4C3IxTi-39" value="Release Branch" style="shape=image;html=1;verticalAlign=top;verticalLabelPosition=bottom;labelBackgroundColor=#ffffff;imageAspect=0;aspect=fixed;image=https://cdn3.iconfinder.com/data/icons/social-media-2169/24/social_media_social_media_logo_git-128.png;fillColor=#00FF00;fontColor=#FF0080;" parent="1" vertex="1">
          <mxGeometry x="976" y="370" width="48" height="48" as="geometry" />
        </mxCell>
        <mxCell id="uqDDsoYjMQcg-4C3IxTi-42" value="Feature Branch" style="shape=image;html=1;verticalAlign=top;verticalLabelPosition=bottom;labelBackgroundColor=#ffffff;imageAspect=0;aspect=fixed;image=https://cdn3.iconfinder.com/data/icons/social-media-2169/24/social_media_social_media_logo_git-128.png;fillColor=#00FF00;fontColor=#FF0080;" parent="1" vertex="1">
          <mxGeometry x="160" y="292" width="48" height="48" as="geometry" />
        </mxCell>
        <mxCell id="uqDDsoYjMQcg-4C3IxTi-43" value="Feature Branch" style="shape=image;html=1;verticalAlign=top;verticalLabelPosition=bottom;labelBackgroundColor=#ffffff;imageAspect=0;aspect=fixed;image=https://cdn3.iconfinder.com/data/icons/social-media-2169/24/social_media_social_media_logo_git-128.png;fillColor=#00FF00;fontColor=#FF0080;" parent="1" vertex="1">
          <mxGeometry x="164" y="450" width="48" height="48" as="geometry" />
        </mxCell>
        <mxCell id="uqDDsoYjMQcg-4C3IxTi-44" value="Feature Branch" style="shape=image;html=1;verticalAlign=top;verticalLabelPosition=bottom;labelBackgroundColor=#ffffff;imageAspect=0;aspect=fixed;image=https://cdn3.iconfinder.com/data/icons/social-media-2169/24/social_media_social_media_logo_git-128.png;fillColor=#00FF00;fontColor=#FF0080;" parent="1" vertex="1">
          <mxGeometry x="160" y="610" width="48" height="48" as="geometry" />
        </mxCell>
        <mxCell id="RJ9k_xJdiQ0NUVy3tTLH-10" value="" style="endArrow=classic;html=1;entryX=0.75;entryY=1;entryDx=0;entryDy=0;exitX=0.24;exitY=0.24;exitDx=0;exitDy=0;exitPerimeter=0;" edge="1" parent="1" source="RJ9k_xJdiQ0NUVy3tTLH-12" target="uqDDsoYjMQcg-4C3IxTi-4">
          <mxGeometry width="50" height="50" relative="1" as="geometry">
            <mxPoint x="776" y="554" as="sourcePoint" />
            <mxPoint x="770" y="498" as="targetPoint" />
          </mxGeometry>
        </mxCell>
        <mxCell id="RJ9k_xJdiQ0NUVy3tTLH-12" value="Hotfix branch 1.0.1" style="verticalLabelPosition=bottom;html=1;verticalAlign=top;align=center;strokeColor=none;fillColor=#00BEF2;shape=mxgraph.azure.git_repository;" vertex="1" parent="1">
          <mxGeometry x="810" y="550" width="50" height="50" as="geometry" />
        </mxCell>
        <mxCell id="RJ9k_xJdiQ0NUVy3tTLH-15" value="Prod Backup" style="rounded=0;whiteSpace=wrap;html=1;" vertex="1" parent="1">
          <mxGeometry x="1180" y="170" width="120" height="60" as="geometry" />
        </mxCell>
        <mxCell id="RJ9k_xJdiQ0NUVy3tTLH-25" value="" style="endArrow=none;html=1;entryX=1;entryY=0.5;entryDx=0;entryDy=0;" edge="1" parent="1" target="uqDDsoYjMQcg-4C3IxTi-33">
          <mxGeometry width="50" height="50" relative="1" as="geometry">
            <mxPoint x="400" y="140" as="sourcePoint" />
            <mxPoint x="480" y="600" as="targetPoint" />
            <Array as="points">
              <mxPoint x="480" y="140" />
              <mxPoint x="480" y="360" />
              <mxPoint x="480" y="480" />
              <mxPoint x="480" y="540" />
              <mxPoint x="480" y="600" />
            </Array>
          </mxGeometry>
        </mxCell>
        <mxCell id="RJ9k_xJdiQ0NUVy3tTLH-27" value="" style="endArrow=classic;html=1;entryX=0;entryY=0.5;entryDx=0;entryDy=0;" edge="1" parent="1" target="uqDDsoYjMQcg-4C3IxTi-4">
          <mxGeometry width="50" height="50" relative="1" as="geometry">
            <mxPoint x="480" y="360" as="sourcePoint" />
            <mxPoint x="630" y="360" as="targetPoint" />
          </mxGeometry>
        </mxCell>
        <mxCell id="RJ9k_xJdiQ0NUVy3tTLH-28" value="" style="endArrow=none;html=1;exitX=1;exitY=0.5;exitDx=0;exitDy=0;" edge="1" parent="1" source="uqDDsoYjMQcg-4C3IxTi-2">
          <mxGeometry width="50" height="50" relative="1" as="geometry">
            <mxPoint x="460" y="280" as="sourcePoint" />
            <mxPoint x="480" y="280" as="targetPoint" />
            <Array as="points" />
          </mxGeometry>
        </mxCell>
        <mxCell id="RJ9k_xJdiQ0NUVy3tTLH-29" value="" style="endArrow=none;html=1;exitX=1;exitY=0.5;exitDx=0;exitDy=0;" edge="1" parent="1" source="uqDDsoYjMQcg-4C3IxTi-3">
          <mxGeometry width="50" height="50" relative="1" as="geometry">
            <mxPoint x="460" y="439.5" as="sourcePoint" />
            <mxPoint x="480" y="440" as="targetPoint" />
            <Array as="points" />
          </mxGeometry>
        </mxCell>
        <mxCell id="RJ9k_xJdiQ0NUVy3tTLH-31" value="Merge to&lt;br&gt;Development" style="shape=image;html=1;verticalAlign=top;verticalLabelPosition=bottom;labelBackgroundColor=#ffffff;imageAspect=0;aspect=fixed;image=https://cdn4.iconfinder.com/data/icons/feather/24/git-merge-128.png" vertex="1" parent="1">
          <mxGeometry x="460" y="30" width="70" height="70" as="geometry" />
        </mxCell>
        <mxCell id="RJ9k_xJdiQ0NUVy3tTLH-32" value="" style="endArrow=classic;html=1;" edge="1" parent="1">
          <mxGeometry width="50" height="50" relative="1" as="geometry">
            <mxPoint x="540" y="110" as="sourcePoint" />
            <mxPoint x="490" y="180" as="targetPoint" />
          </mxGeometry>
        </mxCell>
        <mxCell id="RJ9k_xJdiQ0NUVy3tTLH-33" value="" style="endArrow=none;html=1;" edge="1" parent="1" source="uqDDsoYjMQcg-4C3IxTi-1">
          <mxGeometry width="50" height="50" relative="1" as="geometry">
            <mxPoint x="244" y="140" as="sourcePoint" />
            <mxPoint x="404" y="140" as="targetPoint" />
          </mxGeometry>
        </mxCell>
        <mxCell id="uqDDsoYjMQcg-4C3IxTi-1" value="Sandbox &lt;br&gt;HCL_Disney&lt;br&gt;" style="rounded=0;whiteSpace=wrap;html=1;" parent="1" vertex="1">
          <mxGeometry x="192" y="110" width="120" height="60" as="geometry" />
        </mxCell>
        <mxCell id="RJ9k_xJdiQ0NUVy3tTLH-35" value="Feature Branch&amp;nbsp;" style="shape=image;html=1;verticalAlign=top;verticalLabelPosition=bottom;labelBackgroundColor=#ffffff;imageAspect=0;aspect=fixed;image=https://cdn3.iconfinder.com/data/icons/social-media-2169/24/social_media_social_media_logo_git-128.png;fillColor=#00FF00;fontColor=#FF0080;" vertex="1" parent="1">
          <mxGeometry x="164" y="150" width="48" height="48" as="geometry" />
        </mxCell>
        <mxCell id="RJ9k_xJdiQ0NUVy3tTLH-38" value="Production" style="rounded=0;whiteSpace=wrap;html=1;" vertex="1" parent="1">
          <mxGeometry x="1180" y="330" width="120" height="60" as="geometry" />
        </mxCell>
        <mxCell id="RJ9k_xJdiQ0NUVy3tTLH-39" value="" style="endArrow=classic;html=1;" edge="1" parent="1">
          <mxGeometry width="50" height="50" relative="1" as="geometry">
            <mxPoint x="1116" y="359.5" as="sourcePoint" />
            <mxPoint x="1180" y="360" as="targetPoint" />
          </mxGeometry>
        </mxCell>
        <mxCell id="RJ9k_xJdiQ0NUVy3tTLH-40" value="" style="endArrow=classic;startArrow=classic;html=1;exitX=0.5;exitY=0;exitDx=0;exitDy=0;entryX=0.5;entryY=1;entryDx=0;entryDy=0;entryPerimeter=0;" edge="1" parent="1" source="RJ9k_xJdiQ0NUVy3tTLH-38" target="RJ9k_xJdiQ0NUVy3tTLH-15">
          <mxGeometry width="50" height="50" relative="1" as="geometry">
            <mxPoint x="1220" y="320" as="sourcePoint" />
            <mxPoint x="1245" y="230" as="targetPoint" />
          </mxGeometry>
        </mxCell>
        <mxCell id="RJ9k_xJdiQ0NUVy3tTLH-42" value="Master" style="shape=image;html=1;verticalAlign=top;verticalLabelPosition=bottom;labelBackgroundColor=#ffffff;imageAspect=0;aspect=fixed;image=https://cdn3.iconfinder.com/data/icons/social-media-2169/24/social_media_social_media_logo_git-128.png;fillColor=#00FF00;fontColor=#FF0080;" vertex="1" parent="1">
          <mxGeometry x="1150" y="370" width="48" height="48" as="geometry" />
        </mxCell>
      </root>
    </mxGraphModel>
  </diagram>
</mxfile>
